<svg width="266" height="143" viewBox="0 0 266 143" fill="none" xmlns="http://www.w3.org/2000/svg">
<g filter="url(#filter0_d_5255_6238)">
<rect x="15.5" y="5.5" width="235" height="112" rx="11.5" fill="white" stroke="#FA6559"/>
<rect x="23" y="11" width="220" height="76" rx="10" fill="#F2E9FF"/>
<mask id="mask0_5255_6238" style="mask-type:alpha" maskUnits="userSpaceOnUse" x="23" y="11" width="220" height="76">
<rect x="23" y="11" width="220" height="76" rx="10" fill="#FFDEDE"/>
</mask>
<g mask="url(#mask0_5255_6238)">
<path d="M-5.24514 9.41575C-2.06459 15.5007 -1.09683 22.4859 -0.879351 29.2704C-0.727119 34.0049 -1.13488 39.5746 1.80102 43.6367C8.32524 52.6664 20.9496 42.6659 29.0995 47.8994C33.1771 50.5188 34.7647 55.6113 36.9775 59.657C39.2174 63.757 42.3762 67.0381 47.2096 67.7377C59.7742 69.5599 68.4949 57.1569 80.5538 56.7176C86.5779 56.4953 91.732 59.8848 96.7013 62.8405C101.372 65.6172 106.183 67.9818 111.75 67.895C123.989 67.7052 133.286 58.5832 139.962 49.2823C143.768 43.9783 147.237 38.4466 151.032 33.1318C154.941 27.6597 158.948 22.2527 162.737 16.6992C166.402 11.3193 169.637 5.76589 172.73 0.049747C175.65 -5.34642 179.456 -10.2382 183.707 -14.6582C188.089 -19.2192 192.961 -23.3138 198.131 -26.9528C203.345 -30.6243 208.929 -34.1115 215.013 -36.1398C216.627 -36.6767 218.269 -37.0889 219.938 -37.3601V-38C215.437 -37.2679 211.136 -35.5161 207.107 -33.336C201.877 -30.505 196.93 -27.0829 192.297 -23.3626C187.47 -19.4795 182.968 -15.1626 179.037 -10.3684C177.265 -8.20449 175.606 -5.93756 174.111 -3.57301C172.404 -0.86679 171.034 2.0184 169.463 4.80054C162.922 16.3901 154.56 26.8028 147.019 37.7361C139.783 48.2302 133.047 60.5573 120.498 65.4545C114.42 67.8245 108.021 67.8353 102.089 65.0532C97.1525 62.7375 92.8139 59.2611 87.687 57.3359C82.2719 55.2967 76.9057 56.0777 71.7189 58.4097C65.9668 60.9912 60.8616 64.9013 54.6907 66.5229C48.7482 68.0848 42.784 67.0869 39.087 61.8697C36.461 58.1656 35.205 53.6535 32.3724 50.0795C29.4039 46.3375 25.1958 45.3125 20.5799 45.73C15.7357 46.1639 10.0487 48.2031 5.41109 45.8927C0.0122932 43.2028 -0.0964445 36.3695 -0.194308 31.1523C-0.319355 24.6172 -0.93372 17.9954 -3.40749 11.8779C-5.37019 7.02409 -8.53988 2.57157 -12.8567 -0.460043C-14.4715 -1.59351 -16.2004 -2.43412 -18 -3.04695V-2.41242C-12.3511 -0.384116 -7.97444 4.16601 -5.23971 9.41033L-5.24514 9.41575Z" fill="white"/>
<path d="M-0.477022 16.6884C2.70354 22.7733 3.6713 29.7585 3.88877 36.543C4.041 41.2775 3.63324 46.8472 6.56914 50.9093C13.0934 59.939 25.7177 49.9385 33.8676 55.172C37.9452 57.7914 39.5328 62.8839 41.7456 66.9296C43.9856 71.0296 47.1444 74.3107 51.9777 75.0103C64.5423 76.8326 73.263 64.4295 85.322 63.9902C91.346 63.7679 96.5001 67.1574 101.469 70.1131C106.14 72.8898 110.951 75.2544 116.519 75.1676C128.757 74.9778 138.054 65.8558 144.73 56.5549C148.536 51.251 152.005 45.7192 155.8 40.4044C159.709 34.9323 163.716 29.5253 167.505 23.9718C171.17 18.5919 174.405 13.0385 177.498 7.32237C180.418 1.9262 184.224 -2.9656 188.475 -7.38557C192.857 -11.9466 197.729 -16.0411 202.899 -19.6802C208.113 -23.3517 213.697 -26.8389 219.781 -28.8672C221.395 -29.4041 223.037 -29.8163 224.707 -30.0874V-30.7165C220.205 -29.9844 215.904 -28.2327 211.876 -26.0525C206.645 -23.2216 201.698 -19.7995 197.066 -16.0791C192.238 -12.196 187.736 -7.87909 183.805 -3.08491C182.033 -0.921024 180.374 1.34591 178.879 3.71046C177.172 6.41668 175.802 9.30186 174.231 12.084C167.69 23.6736 159.328 34.0863 151.787 45.0196C144.551 55.5136 137.815 67.8408 125.266 72.738C119.188 75.108 112.789 75.1188 106.857 72.3367C101.921 70.0209 97.5821 66.5446 92.4551 64.6193C87.04 62.5802 81.6738 63.3611 76.4871 65.6931C70.7349 68.2746 65.6297 72.1848 59.4588 73.8064C53.5164 75.3683 47.5521 74.3704 43.8551 69.1532C41.2291 65.4491 39.9732 60.9369 37.1406 57.363C34.172 53.6209 29.9639 52.5959 25.348 53.0135C20.5038 53.4474 14.8168 55.4865 10.1792 53.1762C4.78041 50.4863 4.67168 43.6529 4.57381 38.4357C4.44876 31.9007 3.8344 25.2789 1.36063 19.1614C-0.602071 14.3076 -3.77176 9.85504 -8.08862 6.82342C-9.70336 5.68996 -11.4323 4.84935 -13.2319 4.23652V4.87104C-7.58299 6.89935 -3.20632 11.4495 -0.471586 16.6938L-0.477022 16.6884Z" fill="white"/>
<path d="M4.28566 23.9556C7.46622 30.0405 8.43398 37.0257 8.65145 43.8102C8.80368 48.5447 8.39592 54.1144 11.3318 58.1765C17.856 67.2062 30.4804 57.2057 38.6303 62.4392C42.7079 65.0586 44.2955 70.1511 46.5083 74.1969C48.7482 78.2969 51.9071 81.5779 56.7404 82.2775C69.305 84.0998 78.0257 71.6967 90.0846 71.2574C96.1087 71.0351 101.263 74.4246 106.232 77.3803C110.902 80.157 115.714 82.5216 121.281 82.4348C133.52 82.245 142.817 73.123 149.493 63.8221C153.299 58.5181 156.768 52.9864 160.563 47.6716C164.472 42.1995 168.479 36.7925 172.268 31.239C175.933 25.8591 179.167 20.3057 182.261 14.5896C185.181 9.1934 188.986 4.3016 193.238 -0.118378C197.62 -4.67936 202.492 -8.77393 207.662 -12.413C212.876 -16.0845 218.46 -19.5717 224.543 -21.6C226.158 -22.1369 227.8 -22.5491 229.469 -22.8202V-23.4493C224.967 -22.7172 220.667 -20.9655 216.638 -18.7853C211.408 -15.9544 206.46 -12.5323 201.828 -8.8119C197 -4.92883 192.499 -0.611896 188.568 4.18229C186.795 6.34617 185.137 8.61311 183.642 10.9777C181.935 13.6839 180.565 16.5691 178.993 19.3512C172.453 30.9408 164.091 41.3535 156.55 52.2868C149.314 62.7808 142.577 75.108 130.029 80.0052C123.951 82.3752 117.552 82.386 111.62 79.6039C106.683 77.2881 102.345 73.8118 97.2178 71.8865C91.8027 69.8474 86.4365 70.6283 81.2497 72.9603C75.4975 75.5418 70.3924 79.452 64.2215 81.0736C58.279 82.6355 52.3148 81.6376 48.6178 76.4204C45.9918 72.7163 44.7358 68.2041 41.9032 64.6302C38.9347 60.8881 34.7266 59.8631 30.1107 60.2807C25.2665 60.7146 19.5795 62.7537 14.9419 60.4434C9.5431 57.7535 9.43436 50.9201 9.3365 45.7029C9.21145 39.1679 8.59708 32.5461 6.12332 26.4286C4.16061 21.5748 0.990926 17.1222 -3.32594 14.0906C-4.94068 12.9572 -6.6696 12.1165 -8.4692 11.5037V12.1382C-2.82031 14.1665 1.55636 18.7167 4.2911 23.961L4.28566 23.9556Z" fill="white"/>
<path d="M9.05378 31.2228C12.2343 37.3077 13.2021 44.2929 13.4196 51.0774C13.5718 55.8119 13.164 61.3816 16.0999 65.4437C22.6242 74.4734 35.2485 64.4729 43.3984 69.7064C47.476 72.3258 49.0636 77.4183 51.2764 81.4641C53.5164 85.5641 56.6752 88.8451 61.5085 89.5447C74.0731 91.367 82.7938 78.9639 94.8528 78.5246C100.877 78.3023 106.031 81.6918 111 84.6475C115.67 87.4242 120.482 89.7888 126.049 89.702C138.288 89.5122 147.585 80.3902 154.261 71.0893C158.067 65.7853 161.536 60.2536 165.331 54.9388C169.24 49.4667 173.247 44.0597 177.036 38.5062C180.701 33.1263 183.936 27.5729 187.029 21.8568C189.949 16.4606 193.755 11.5688 198.006 7.14882C202.388 2.58784 207.26 -1.50674 212.43 -5.14576C217.644 -8.81732 223.228 -12.3045 229.312 -14.3328C230.926 -14.8697 232.568 -15.2819 234.237 -15.553V-16.1821C229.736 -15.45 225.435 -13.6983 221.406 -11.5181C216.176 -8.68716 211.229 -5.26507 206.596 -1.5447C201.768 2.33837 197.267 6.6553 193.336 11.4495C191.563 13.6134 189.905 15.8803 188.41 18.2449C186.703 20.9511 185.333 23.8363 183.762 26.6184C177.221 38.208 168.859 48.6207 161.318 59.554C154.082 70.048 147.346 82.3752 134.797 87.2724C128.719 89.6424 122.32 89.6532 116.388 86.8711C111.451 84.5553 107.113 81.079 101.986 79.1537C96.5708 77.1146 91.2046 77.8955 86.0179 80.2275C80.2657 82.809 75.1605 86.7192 68.9896 88.3408C63.0472 89.9027 57.0829 88.9048 53.3859 83.6876C50.7599 79.9835 49.504 75.4713 46.6714 71.8974C43.7028 68.1553 39.4947 67.1303 34.8788 67.5479C30.0346 67.9818 24.3476 70.0209 19.71 67.7106C14.3112 65.0207 14.2025 58.1873 14.1046 52.9701C13.9796 46.4351 13.3652 39.8132 10.8914 33.6958C8.92873 28.8419 5.75905 24.3894 1.44219 21.3578C-0.172559 20.2244 -1.90148 19.3837 -3.70108 18.7709V19.4054C1.94781 21.4337 6.32448 25.9839 9.05922 31.2282L9.05378 31.2228Z" fill="white"/>
<path d="M13.8165 38.4954C16.997 44.5803 17.9648 51.5655 18.1823 58.35C18.3345 63.0846 17.9267 68.6543 20.8626 72.7163C27.3868 81.7461 40.0112 71.7455 48.1611 76.979C52.2387 79.5984 53.8263 84.6909 56.0391 88.7367C58.279 92.8367 61.4379 96.1178 66.2712 96.8174C78.8358 98.6396 87.5565 86.2365 99.6154 85.7973C105.639 85.5749 110.794 88.9644 115.763 91.9201C120.433 94.6969 125.245 97.0614 130.812 96.9746C143.05 96.7848 152.347 87.6629 159.024 78.3619C162.83 73.058 166.298 67.5262 170.093 62.2114C174.002 56.7393 178.009 51.3323 181.799 45.7789C185.463 40.399 188.698 34.8455 191.792 29.1294C194.711 23.7332 198.517 18.8414 202.769 14.4214C207.151 9.86046 212.022 5.76588 217.193 2.12686C222.407 -1.5447 227.99 -5.03187 234.074 -7.06018C235.689 -7.59708 237.331 -8.00925 239 -8.28042V-8.90952C234.498 -8.17737 230.198 -6.42565 226.169 -4.24549C220.939 -1.41454 215.991 2.00755 211.359 5.72792C206.531 9.61099 202.029 13.9279 198.099 18.7221C196.326 20.886 194.668 23.1529 193.173 25.5175C191.466 28.2237 190.096 31.1089 188.524 33.891C181.984 45.4806 173.622 55.8933 166.081 66.8266C158.844 77.3207 152.108 89.6478 139.56 94.545C133.482 96.915 127.082 96.9258 121.151 94.1437C116.214 91.8279 111.876 88.3516 106.749 86.4264C101.333 84.3872 95.9673 85.1682 90.7805 87.5002C85.0283 90.0816 79.9232 93.9918 73.7523 95.6134C67.8098 97.1753 61.8456 96.1774 58.1486 90.9602C55.5226 87.2561 54.2666 82.7439 51.434 79.17C48.4655 75.4279 44.2574 74.4029 39.6415 74.8205C34.7973 75.2544 29.1103 77.2935 24.4727 74.9832C19.0739 72.2933 18.9652 65.4599 18.8673 60.2427C18.7422 53.7077 18.1279 47.0859 15.6541 40.9684C13.6914 36.1146 10.5217 31.6621 6.20487 28.6304C4.59012 27.497 2.8612 26.6564 1.06161 26.0435V26.6781C6.7105 28.7064 11.0872 33.2565 13.8219 38.5008L13.8165 38.4954Z" fill="white"/>
<path fill-rule="evenodd" clip-rule="evenodd" d="M142.023 89.5502C141.92 89.5502 157.284 68.7953 164.515 68.2909C167.875 68.0577 171.007 69.9287 174.34 69.4352C181.054 68.4482 187.904 62.0975 192.651 57.6613C199.121 51.6089 207.059 38.8099 217.519 40.7569C221.743 41.5433 223.755 45.6975 224.87 49.4125C227.599 58.5073 230.018 87.1368 228.561 89.5556C227.322 89.5502 142.023 89.5556 142.023 89.5556V89.5502Z" fill="#F48585"/>
<path d="M164.455 57.4498C176.841 57.4498 186.882 48.0118 186.882 36.3695C186.882 24.7271 176.841 15.2892 164.455 15.2892C152.069 15.2892 142.028 24.7271 142.028 36.3695C142.028 48.0118 152.069 57.4498 164.455 57.4498Z" fill="#FEEBDE"/>
<path d="M188.04 90.0762C187.926 90.0762 187.828 89.9894 187.823 89.8756C187.236 80.9326 185.311 71.5991 182.272 62.8893C182.076 62.3361 181.886 61.7938 181.701 61.2623C179.254 54.3151 177.487 49.2931 177.129 38.6418C177.129 38.5225 177.221 38.4195 177.341 38.4195H177.346C177.466 38.4195 177.558 38.5117 177.564 38.631C177.922 49.2172 179.679 54.2121 182.114 61.1213C182.299 61.6528 182.489 62.1951 182.685 62.7483C185.741 71.4906 187.665 80.8621 188.258 89.8484C188.263 89.9678 188.176 90.0708 188.057 90.0816C188.057 90.0816 188.046 90.0816 188.04 90.0816V90.0762Z" fill="#343434"/>
<path d="M177.46 43.398C177.265 43.398 176.743 43.1919 174.943 42.4056C174.198 42.0802 172.382 41.2775 171.692 40.8437C167.859 38.4629 165.434 36.543 162.835 32.6437C162.813 32.6111 160.53 29.1619 161.248 28.5925C161.585 28.3267 162.215 28.8311 165.206 31.7759C165.831 32.3888 166.44 32.9908 166.956 33.4734C168.99 35.3824 171.039 37.1938 173.018 38.9401C174.628 40.361 176.15 41.706 177.574 43.0238C177.574 43.0238 177.58 43.0293 177.585 43.0347C177.661 43.116 177.661 43.2408 177.596 43.3275C177.564 43.3709 177.536 43.4035 177.455 43.4035L177.46 43.398ZM161.509 28.9938C161.503 29.4494 162.493 31.3475 163.199 32.3996C165.755 36.2339 168.142 38.1266 171.92 40.4695C172.698 40.9521 175.063 41.9988 176.449 42.5737C175.275 41.5053 174.035 40.4098 172.736 39.2655C170.751 37.5138 168.702 35.7024 166.663 33.788C166.146 33.3053 165.532 32.6979 164.907 32.0851C163.672 30.8703 162.009 29.2378 161.514 28.9938H161.509Z" fill="#343434"/>
<path d="M177.411 41.4294C177.254 41.4294 176.895 41.1528 175.237 39.7373C174.617 39.2113 173.116 37.9151 172.578 37.3023C169.62 33.9344 168.397 32.546 167.054 28.0664C167.043 28.0285 165.874 24.0586 166.717 23.7332C167.119 23.5814 167.571 24.243 169.582 27.9308C170.001 28.6955 170.409 29.4494 170.762 30.0568C172.121 32.4105 173.355 34.3466 174.557 36.2176C175.595 37.8392 176.574 39.3685 177.585 41.0931C177.585 41.0931 177.591 41.104 177.591 41.1094C177.64 41.207 177.607 41.3318 177.515 41.3914C177.482 41.4131 177.455 41.4294 177.411 41.4294ZM166.848 24.1942C166.712 24.6281 167.103 26.7323 167.473 27.9417C168.794 32.3237 169.914 33.6036 172.91 37.0148C173.513 37.6982 175.465 39.3794 176.623 40.3339C175.818 38.9998 175.019 37.7578 174.187 36.4562C172.986 34.5798 171.746 32.6437 170.381 30.2791C170.028 29.6663 169.615 28.9125 169.196 28.1423C168.37 26.6238 167.25 24.5738 166.848 24.1996V24.1942Z" fill="#343434"/>
<path d="M177.623 45.3504C177.281 45.3504 176.601 45.2908 175.182 45.1443C174.372 45.063 172.399 44.8461 171.605 44.6454C166.978 43.4794 162.699 41.4023 159.225 38.631C159.192 38.6039 155.968 36.0061 156.479 35.2577C156.719 34.8998 157.474 35.1926 161.231 37.0908C162.009 37.4812 162.775 37.8717 163.411 38.17C166.603 39.6885 170.463 41.4782 173.867 43.0618C175.329 43.7397 176.699 44.3742 177.884 44.9274C177.884 44.9274 177.895 44.9274 177.901 44.9328C177.993 44.9871 178.037 45.1064 177.999 45.204C177.966 45.2908 177.944 45.345 177.629 45.345L177.623 45.3504ZM156.849 35.5614C156.98 35.9953 158.507 37.5029 159.497 38.2947C162.917 41.0281 167.141 43.0781 171.708 44.2278C172.6 44.4502 175.182 44.7267 176.672 44.8569C175.742 44.423 174.731 43.9566 173.676 43.4631C170.267 41.8795 166.407 40.0844 163.216 38.5713C162.574 38.2676 161.808 37.8826 161.03 37.4867C159.481 36.7057 157.393 35.6536 156.844 35.5722L156.849 35.5614Z" fill="#343434"/>
<path d="M171.306 47.9265C166.701 47.9265 162.204 47.0208 158.274 45.2962C158.236 45.2799 154.452 43.5933 154.745 42.7418C154.886 42.3351 155.691 42.4218 159.807 43.2896C160.66 43.4685 161.503 43.6475 162.194 43.7777C165.662 44.423 169.849 45.1606 173.546 45.8114C175.139 46.0934 176.634 46.3537 177.922 46.5869C177.928 46.5869 177.933 46.5869 177.939 46.5869C178.042 46.614 178.118 46.7171 178.102 46.8256C178.08 47.0208 178.075 47.0533 175.367 47.4818C174.562 47.6119 172.6 47.9102 171.784 47.921C171.621 47.921 171.463 47.921 171.3 47.921L171.306 47.9265ZM155.18 42.9425C155.419 43.3275 157.284 44.3905 158.448 44.9003C162.46 46.6574 167.076 47.5577 171.779 47.4926C172.698 47.4818 175.264 47.0859 176.737 46.8201C175.726 46.6412 174.622 46.4459 173.464 46.2398C169.767 45.589 165.581 44.8461 162.112 44.2007C161.416 44.0705 160.573 43.8916 159.714 43.7126C158.018 43.3546 155.735 42.8828 155.18 42.9371V42.9425Z" fill="#343434"/>
<path d="M161.949 52.6068C160.666 52.6068 159.535 52.5363 158.725 52.4061C158.681 52.4007 154.593 51.7228 154.664 50.8225C154.696 50.3941 155.495 50.2748 159.698 50.0741C160.573 50.0307 161.427 49.9927 162.128 49.9385C165.657 49.6836 169.908 49.342 173.66 49.0383C175.258 48.9081 176.759 48.7888 178.064 48.6857C178.069 48.6857 178.08 48.6857 178.08 48.6857C178.194 48.6857 178.287 48.7725 178.298 48.881C178.308 49.0166 178.325 49.163 175.536 50.1554C174.079 50.6761 171.811 51.4028 169.316 51.9072C166.913 52.3953 164.189 52.6068 161.949 52.6068ZM155.137 50.9093C155.468 51.2238 157.54 51.777 158.796 51.9777C160.65 52.2705 165.119 52.3139 169.229 51.4841C172.377 50.8496 175.237 49.8355 176.775 49.2335C175.813 49.3094 174.78 49.3962 173.693 49.483C169.941 49.7867 165.689 50.1283 162.161 50.3832C161.454 50.432 160.595 50.4754 159.72 50.5188C157.985 50.6002 155.653 50.714 155.137 50.9147V50.9093Z" fill="#343434"/>
<path d="M159.497 57.8023C159.312 57.8023 159.133 57.8023 158.948 57.8023C158.904 57.8023 154.761 57.7426 154.702 56.8261C154.674 56.3976 155.446 56.1644 159.568 55.3564C160.427 55.1883 161.269 55.0201 161.96 54.8683C164.945 54.2066 168.952 53.263 172.491 52.4278C174.834 51.8746 177.025 51.3594 178.7 50.9744C178.7 50.9744 178.711 50.9744 178.716 50.9744C178.825 50.9581 178.934 51.0232 178.961 51.1316C179.01 51.3052 179.026 51.3648 176.721 52.7912C175.84 53.3389 174.193 54.3259 173.089 54.7978C167.353 57.2599 163.569 57.8077 159.502 57.8077L159.497 57.8023ZM155.175 56.8369C155.544 57.0972 157.676 57.3467 158.948 57.363C163.183 57.4064 166.978 56.9291 172.904 54.391C174.253 53.8107 176.465 52.4495 177.694 51.6468C176.21 51.9885 174.443 52.4061 172.578 52.8454C169.039 53.6806 165.032 54.6242 162.041 55.2859C161.345 55.4377 160.503 55.6058 159.638 55.774C157.937 56.1102 155.648 56.5603 155.169 56.8315L155.175 56.8369Z" fill="#343434"/>
<path d="M156.588 63.5726C155.68 63.5726 154.859 63.4642 154.772 63.0845C154.674 62.667 155.403 62.3144 159.356 60.8718C160.177 60.5736 160.981 60.2807 161.634 60.0204C163.901 59.131 167.13 57.9379 170.262 56.7827C173.747 55.4974 177.042 54.2826 179.129 53.442C179.135 53.442 179.14 53.442 179.146 53.4365C179.249 53.404 179.369 53.4528 179.412 53.5558C179.499 53.7457 179.505 53.7619 177.14 55.6818C176.438 56.2512 174.726 57.6233 174.024 58.0517C169.822 60.6115 164.113 62.6561 159.116 63.3828C159.095 63.3828 157.768 63.5726 156.583 63.5726H156.588ZM155.251 63.0195C155.659 63.2201 157.801 63.1334 159.062 62.9544C163.999 62.2385 169.648 60.2156 173.801 57.683C174.622 57.184 176.857 55.3726 178.129 54.3097C176.074 55.1069 173.312 56.1265 170.414 57.1949C167.288 58.35 164.058 59.5431 161.797 60.4271C161.139 60.6875 160.329 60.9803 159.508 61.2786C157.877 61.8752 155.68 62.6778 155.251 63.0195Z" fill="#343434"/>
<path d="M157.67 68.177C157.039 68.177 156.545 68.0794 156.458 67.7974C156.333 67.3906 157.029 66.9839 160.862 65.2484C161.655 64.8905 162.438 64.5326 163.074 64.2289C165.265 63.1767 168.397 61.745 171.425 60.3566C174.807 58.811 178.004 57.3521 180.026 56.3597C180.026 56.3597 180.037 56.3597 180.043 56.3543C180.146 56.3163 180.266 56.3543 180.32 56.4519C180.418 56.6308 180.429 56.6525 178.211 58.7459C177.553 59.3696 175.949 60.8664 175.286 61.3437C171.289 64.2126 165.749 66.6802 160.824 67.7811C160.796 67.7865 158.959 68.1879 157.676 68.1879L157.67 68.177ZM156.925 67.6998C157.349 67.8679 159.481 67.6238 160.72 67.3472C165.592 66.2626 171.072 63.8221 175.025 60.9857C175.807 60.4217 177.895 58.4531 179.086 57.2925C177.096 58.2416 174.416 59.4672 171.605 60.7525C168.576 62.1355 165.45 63.5672 163.265 64.6193C162.629 64.9285 161.846 65.281 161.046 65.6443C159.464 66.3602 157.338 67.3256 156.931 67.6998H156.925Z" fill="#343434"/>
<path d="M160.122 74.4246C159.801 74.4246 159.568 74.3595 159.486 74.1914C159.296 73.8064 159.916 73.2966 163.411 70.9537C164.135 70.4656 164.847 69.9938 165.423 69.5871C167.413 68.1879 170.273 66.2572 173.04 64.3916C176.117 62.3199 179.021 60.3621 180.847 59.0551C180.847 59.0551 180.858 59.0496 180.864 59.0442C180.956 58.9845 181.081 59.0062 181.152 59.093C181.282 59.2557 181.293 59.272 179.45 61.6962C178.901 62.4175 177.564 64.1584 176.987 64.7387C173.519 68.2204 168.457 71.5611 163.776 73.4484C163.743 73.4593 161.329 74.4192 160.117 74.4192L160.122 74.4246ZM159.932 74.0179C160.378 74.1209 162.438 73.5244 163.618 73.0525C168.245 71.1869 173.252 67.8842 176.683 64.4404C177.362 63.757 179.102 61.4738 180.081 60.1343C178.276 61.3925 175.84 63.0357 173.285 64.7549C170.517 66.6205 167.663 68.5458 165.673 69.945C165.097 70.3517 164.379 70.829 163.651 71.3171C162.21 72.2824 160.269 73.5786 159.926 74.0179H159.932Z" fill="#343434"/>
<path d="M162.52 79.349C162.291 79.349 162.117 79.2947 162.036 79.1646C161.808 78.8012 162.378 78.2318 165.635 75.5744C166.309 75.0212 166.973 74.4843 167.511 74.0233C169.359 72.4397 172.023 70.2541 174.601 68.1336C177.466 65.7799 180.173 63.5564 181.87 62.0812C181.87 62.0812 181.88 62.0758 181.88 62.0704C181.967 62.0053 182.098 62.0162 182.174 62.0921C182.315 62.2385 182.332 62.2548 180.728 64.8471C180.249 65.6172 179.086 67.472 178.564 68.1065C175.438 71.9028 170.719 75.7045 166.239 78.0203C166.206 78.0365 163.651 79.3435 162.514 79.3435L162.52 79.349ZM162.465 78.9531C162.922 79.0181 164.912 78.2263 166.043 77.6406C170.474 75.3466 175.144 71.5883 178.232 67.8353C178.847 67.0924 180.358 64.6519 181.212 63.231C179.537 64.6519 177.265 66.5175 174.883 68.4753C172.306 70.5904 169.642 72.7759 167.799 74.3595C167.261 74.8205 166.597 75.3629 165.918 75.916C164.575 77.0115 162.764 78.4867 162.471 78.9531H162.465Z" fill="#343434"/>
<path d="M168.625 82.2125C168.489 82.2125 168.386 82.1691 168.321 82.0877C168.044 81.7569 168.5 81.1603 171.371 78.0853C171.964 77.4508 172.54 76.8326 173.008 76.3065C174.927 74.148 176.966 71.7726 178.939 69.4678C180.369 67.7974 181.723 66.2192 182.919 64.858C182.919 64.858 182.924 64.8471 182.93 64.8471C183.011 64.7658 183.147 64.7603 183.234 64.8471C183.278 64.8905 183.278 64.9935 183.245 65.1508C183.033 66.1053 181.571 68.8278 181.554 68.8603C180.434 70.9266 178.477 74.1101 175.514 77.5376C173.611 79.7394 169.626 82.2125 168.631 82.2125H168.625ZM182.419 66.089C181.44 67.2171 180.374 68.459 179.26 69.7606C177.286 72.0655 175.248 74.4463 173.323 76.6048C172.855 77.1309 172.274 77.7545 171.681 78.389C170.545 79.6039 169.028 81.2308 168.734 81.7786C169.609 81.6376 173.258 79.4791 175.177 77.261C179.407 72.3692 181.571 68.0523 182.424 66.0945L182.419 66.089Z" fill="#343434"/>
<path d="M173.481 84.4902C173.355 84.4902 173.274 84.4414 173.225 84.4035C172.904 84.116 173.301 83.411 175.71 79.9726C176.21 79.2568 176.699 78.5572 177.091 77.9715C178.493 75.8618 179.613 74.3433 180.69 72.879C181.755 71.431 182.761 70.0643 183.946 68.2584C183.946 68.2584 183.952 68.2475 183.957 68.2421C184.028 68.1499 184.169 68.1282 184.267 68.1933C184.539 68.3885 184.224 71.7835 179.858 78.3565C177.721 81.5725 174.514 84.3655 173.557 84.4848C173.529 84.4848 173.508 84.4848 173.486 84.4848L173.481 84.4902ZM183.821 69.2345C182.837 70.6934 181.962 71.8811 181.043 73.1339C179.967 74.5982 178.858 76.1058 177.455 78.2101C177.063 78.8012 176.569 79.5008 176.068 80.2221C175.101 81.6051 173.807 83.449 173.595 84.0347C174.334 83.7852 177.297 81.4152 179.488 78.1179C182.625 73.3942 183.55 70.5253 183.821 69.2345Z" fill="#343434"/>
<path d="M178.151 86.1389C178.053 86.1389 177.971 86.1118 177.901 86.063C177.542 85.7973 177.933 85.0163 179.63 82.0443C180.086 81.2417 180.559 80.4174 180.934 79.7123C182.054 77.5918 182.565 76.6644 183.017 75.8455C183.501 74.967 183.914 74.2131 184.963 72.1957C184.963 72.1957 184.969 72.1848 184.974 72.1794C185.034 72.0818 185.17 72.0438 185.268 72.1035C185.317 72.1306 185.344 72.2336 185.349 72.3963C185.393 73.5786 184.403 77.9281 183.289 80.1137C181.375 83.8611 179.184 85.9166 178.308 86.1226C178.254 86.1335 178.2 86.1443 178.151 86.1443V86.1389ZM184.8 73.443C184.137 74.7121 183.789 75.3412 183.403 76.0462C182.952 76.8651 182.446 77.7871 181.32 79.9076C180.945 80.618 180.472 81.4478 180.01 82.2504C179.282 83.5195 178.303 85.2332 178.216 85.7051C178.743 85.6346 180.929 83.7689 182.903 79.9021C183.914 77.9172 184.539 75.0266 184.8 73.4376V73.443Z" fill="#343434"/>
<path d="M177.303 38.8208C177.259 38.8208 177.199 38.7937 177.08 38.6689C176.835 38.4032 176.34 37.6982 175.253 35.9031C174.367 34.4388 173.192 32.3454 172.627 30.6859C171.268 26.6998 171.322 23.7061 171.784 22.9306C171.871 22.7841 171.98 22.6974 172.11 22.6811C172.545 22.6106 172.844 23.4349 173.796 26.7269C174.051 27.6109 174.318 28.5274 174.562 29.2812C175.307 31.5753 175.704 32.866 176.052 34.0103C176.444 35.2902 176.781 36.3912 177.498 38.5388C177.498 38.5388 177.498 38.5496 177.498 38.555C177.526 38.6689 177.46 38.7882 177.346 38.8208C177.33 38.8208 177.319 38.8316 177.303 38.8316V38.8208ZM172.143 23.1475C171.828 23.5759 171.643 26.4394 173.046 30.5449C173.758 32.6328 175.541 35.5885 176.612 37.2372C176.199 35.9573 175.933 35.095 175.639 34.1351C175.291 32.9962 174.894 31.7054 174.149 29.4168C173.899 28.6576 173.638 27.7356 173.377 26.8462C172.969 25.4361 172.42 23.5434 172.143 23.1475Z" fill="#343434"/>
<path d="M177.303 38.7123C177.303 38.7123 177.303 38.7123 177.297 38.7123C177.183 38.7015 177.091 38.5984 177.101 38.4791C177.101 38.4737 177.101 38.4683 177.101 38.4629C177.368 36.4996 177.542 35.4367 177.716 34.4117C177.928 33.148 178.129 31.9603 178.477 29.2433C178.575 28.4569 178.667 27.5078 178.754 26.5913C179.075 23.18 179.206 22.3177 179.651 22.3069C179.787 22.3123 179.907 22.3666 180.021 22.4967C180.619 23.1692 181.228 26.1032 180.641 30.2737C180.277 32.8281 177.841 38.7232 177.308 38.7232L177.303 38.7123ZM179.7 22.7787C179.505 23.2343 179.32 25.1812 179.184 26.6292C179.097 27.5512 179.01 28.5003 178.906 29.2975C178.559 32.0254 178.357 33.2185 178.145 34.4876C178.015 35.274 177.879 36.0875 177.7 37.3077C178.493 35.6699 179.874 32.4864 180.2 30.2032C180.804 25.9568 180.108 23.1909 179.7 22.7787Z" fill="#343434"/>
<path d="M177.21 38.2785C177.112 38.2785 177.02 38.208 176.998 38.1103C176.998 38.1049 176.998 38.0995 176.998 38.0941C176.895 37.427 176.726 36.5972 176.531 35.6427C176.112 33.609 175.595 31.0709 175.411 28.6033C175.188 25.6422 175.421 21.2602 175.938 21.0975C176.003 21.0812 176.101 21.0975 176.161 21.13C176.59 21.4229 177.362 24.883 177.558 28.023C177.71 30.4689 177.672 33.0558 177.618 34.8021C177.553 36.8521 177.504 37.6819 177.439 38.0236C177.395 38.2513 177.335 38.2622 177.254 38.273C177.243 38.273 177.232 38.273 177.221 38.273L177.21 38.2785ZM176.047 21.8405C175.856 22.8709 175.617 25.6748 175.84 28.5762C176.025 31.0167 176.541 33.5331 176.955 35.5614C177.009 35.8217 177.058 36.0712 177.107 36.3098C177.199 34.3574 177.297 31.0546 177.107 28.0556C176.927 25.1595 176.357 22.7462 176.047 21.8459V21.8405Z" fill="#343434"/>
<path d="M179.314 48.5935C178.205 48.5935 178.173 48.4959 178.145 48.3983C178.113 48.2898 178.167 48.176 178.27 48.1326C178.276 48.1326 178.281 48.1326 178.287 48.1271C179.521 47.7367 180.945 47.2865 182.462 46.8093C186.061 45.6812 190.139 44.3959 193.515 43.3004C194.184 43.0835 194.994 42.8015 195.821 42.5086C199.789 41.1203 200.572 40.9304 200.768 41.3101C201.17 42.1181 197.636 44.2766 197.604 44.2983C195.668 45.4643 191.4 47.1021 187.605 47.8126C185.099 48.2844 182.729 48.4634 181.185 48.5285C180.353 48.5664 179.755 48.5773 179.314 48.5773V48.5935ZM200.349 41.5758C199.773 41.5975 197.593 42.3622 195.967 42.9316C195.141 43.2245 194.325 43.5065 193.651 43.7234C190.275 44.8189 186.192 46.0988 182.593 47.2323C181.571 47.5523 180.586 47.8614 179.679 48.1488C181.331 48.1326 184.36 47.997 187.524 47.4004C191.65 46.6249 195.772 44.9111 197.381 43.9404C198.452 43.295 200.121 42.0314 200.349 41.5758Z" fill="#343434"/>
<path d="M177.982 46.7442C177.797 46.7442 177.77 46.6954 177.748 46.652C177.694 46.5544 177.727 46.4297 177.819 46.37C177.819 46.37 177.83 46.3646 177.835 46.3591C178.977 45.73 180.298 45.0033 181.706 44.2278C184.969 42.4327 188.671 40.399 191.721 38.6852C192.33 38.3435 193.059 37.9097 193.809 37.465C197.397 35.3336 198.126 34.9974 198.398 35.3282C198.963 36.0332 195.956 38.8208 195.924 38.8479C194.276 40.361 190.438 42.7852 186.877 44.2278C184.528 45.1769 182.245 45.8222 180.744 46.191C178.983 46.6249 178.281 46.7496 177.982 46.7496V46.7442ZM198.033 35.659C197.473 35.7946 195.5 36.966 194.032 37.8392C193.282 38.2839 192.548 38.7177 191.939 39.0594C188.883 40.7786 185.181 42.8123 181.919 44.6074C180.967 45.1281 180.059 45.6324 179.216 46.0934C180.831 45.7517 183.756 45.0196 186.714 43.821C190.585 42.2537 194.26 39.7807 195.63 38.5279C196.538 37.6982 197.908 36.1471 198.039 35.659H198.033Z" fill="#343434"/>
<path d="M177.694 44.2549C177.596 44.2549 177.574 44.2224 177.547 44.1898C177.482 44.0976 177.493 43.9729 177.574 43.897C177.574 43.897 177.585 43.8916 177.591 43.8861C179.086 42.731 180.652 41.565 182.31 40.3339C184.425 38.7611 186.611 37.1341 188.829 35.3987C189.378 34.9648 190.036 34.4279 190.71 33.8748C193.934 31.2282 194.603 30.7781 194.913 31.0709C195.587 31.6892 193.031 34.8943 193.004 34.9269C191.515 36.7816 189.291 38.5713 186.203 40.4098C184.023 41.706 181.87 42.6822 180.445 43.2787C178.537 44.0705 177.922 44.2549 177.699 44.2549H177.694ZM194.608 31.456C194.075 31.6729 192.303 33.1263 190.987 34.211C190.313 34.7642 189.655 35.3065 189.101 35.7404C186.877 37.4812 184.691 39.1082 182.576 40.681C181.31 41.6246 180.097 42.5249 178.934 43.4089C180.478 42.8232 183.251 41.6572 185.985 40.0302C189.03 38.2188 191.216 36.4617 192.667 34.6503C193.439 33.6904 194.559 31.9495 194.614 31.4505L194.608 31.456Z" fill="#343434"/>
<path d="M177.515 42.4056C177.466 42.4056 177.439 42.3839 177.411 42.3568C177.324 42.2808 177.313 42.1561 177.379 42.0639C177.379 42.0639 177.384 42.0585 177.39 42.0531C180.489 38.3869 183.539 34.7533 186.458 31.2445C186.904 30.7076 187.437 30.0405 187.975 29.3626C190.569 26.0978 191.123 25.5175 191.493 25.7344C192.287 26.2008 190.46 29.8669 190.438 29.9049C189.372 32.0308 187.578 34.249 184.947 36.6949C183.093 38.4195 181.223 39.8675 179.988 40.7786C178.145 42.1344 177.689 42.4056 177.515 42.4056ZM191.27 26.1737C190.797 26.4991 189.372 28.2942 188.312 29.6283C187.769 30.3117 187.241 30.9787 186.79 31.5211C184.18 34.6557 181.467 37.8934 178.711 41.1582C180.092 40.1875 182.408 38.4574 184.653 36.3749C187.247 33.9669 189.008 31.7868 190.052 29.7097C190.601 28.6087 191.33 26.6726 191.275 26.1737H191.27Z" fill="#343434"/>
<path d="M177.591 40.6322C177.591 40.6322 177.569 40.6322 177.564 40.6322C177.455 40.5888 177.4 40.464 177.444 40.3556C177.444 40.3501 177.444 40.3447 177.449 40.3393C178.238 38.5876 178.896 37.1992 179.537 35.8488C180.347 34.1459 181.179 32.3888 182.299 29.8453C185.224 23.2072 185.681 22.7787 186.051 22.8709C186.121 22.8872 186.224 22.9414 186.295 23.0933C186.714 23.9935 185.893 28.3864 183.702 32.9582C181.886 36.7437 178.118 40.6322 177.591 40.6322ZM185.936 23.3753C185.306 24.102 183.365 28.5111 182.701 30.0188C181.576 32.5677 180.739 34.3303 179.934 36.0332C179.39 37.1775 178.868 38.273 178.27 39.5855C179.472 38.4195 181.837 35.8434 183.31 32.7738C185.572 28.061 186.127 24.1508 185.942 23.3753H185.936Z" fill="#343434"/>
<path d="M185.278 51.9234C184.071 51.9234 182.266 51.7065 181.277 51.5709C178.586 51.2076 178.58 51.1425 178.553 50.9635C178.537 50.855 178.607 50.752 178.716 50.7195C178.722 50.7195 178.727 50.7195 178.732 50.7195C180.418 50.3886 182.631 49.9656 184.996 49.5209C188.562 48.843 192.607 48.0783 195.603 47.4655C196.299 47.3245 197.136 47.1347 197.99 46.9394C202.084 46.0012 202.883 45.9036 203.035 46.3049C203.351 47.1672 199.594 48.9081 199.556 48.9244C195.668 50.714 191.944 51.8367 185.42 51.9289C185.376 51.9289 185.333 51.9289 185.289 51.9289L185.278 51.9234ZM179.907 50.931C181.358 51.1642 183.936 51.5113 185.404 51.4896C191.852 51.3974 195.527 50.2856 199.365 48.523C200.502 48.0024 202.307 46.9286 202.579 46.5056C201.997 46.4622 199.751 46.9774 198.082 47.3625C197.223 47.5577 196.381 47.7529 195.685 47.8939C192.683 48.5068 188.638 49.2714 185.072 49.9494C183.191 50.3073 181.402 50.6435 179.907 50.9364V50.931Z" fill="#343434"/>
<path d="M189.106 55.595C188.073 55.595 187.067 55.5516 186.105 55.4703C185.289 55.3998 183.142 54.9279 182.261 54.7273C179.282 54.0548 179.282 54.0331 179.276 53.827C179.276 53.7185 179.352 53.6209 179.461 53.6047C179.466 53.6047 179.472 53.6047 179.477 53.6047C181.723 53.4257 185.213 53.0569 188.91 52.6664C192.227 52.3139 195.657 51.9505 198.082 51.7445C198.789 51.6848 199.637 51.5926 200.507 51.495C204.683 51.0394 205.493 51.034 205.596 51.4462C205.808 52.3248 201.872 53.6263 201.834 53.6426C197.979 54.8954 193.33 55.595 189.106 55.595ZM180.76 53.93C182.375 54.3205 185.181 54.9496 186.143 55.0364C190.993 55.4703 196.951 54.7761 201.698 53.2304C202.888 52.8454 204.802 51.9885 205.128 51.598C204.558 51.4896 202.263 51.739 200.556 51.9289C199.681 52.0265 198.827 52.1187 198.12 52.1783C195.701 52.3844 192.27 52.7478 188.959 53.1003C185.887 53.4257 182.957 53.7348 180.766 53.93H180.76Z" fill="#343434"/>
<path d="M195.908 59.9282C192.656 59.9282 189.362 59.5757 186.518 58.8815C185.724 58.6863 183.675 57.8999 182.826 57.5745C179.983 56.4681 179.988 56.4465 180.01 56.2404C180.021 56.1319 180.119 56.0451 180.228 56.0451C180.228 56.0451 180.239 56.0451 180.244 56.0451C182.489 56.2078 185.996 56.3651 189.704 56.5278C193.037 56.6742 196.484 56.8315 198.914 56.9888C199.621 57.0322 200.474 57.0701 201.35 57.1081C205.553 57.2816 206.352 57.3955 206.39 57.824C206.466 58.7242 202.383 59.4238 202.339 59.4347C200.322 59.7709 198.12 59.9336 195.902 59.9336L195.908 59.9282ZM181.467 56.5603C183.006 57.1894 185.686 58.2307 186.621 58.4585C191.351 59.6082 197.348 59.8143 202.274 58.9954C203.508 58.7893 205.531 58.2307 205.906 57.8945C205.362 57.6992 203.052 57.607 201.334 57.5365C200.458 57.4986 199.594 57.466 198.887 57.4172C196.462 57.2599 193.015 57.1081 189.688 56.9562C186.605 56.8207 183.664 56.6851 181.462 56.5549L181.467 56.5603Z" fill="#343434"/>
<path d="M200.6 64.7061C196.169 64.7061 191.319 63.9468 187.421 62.6073C186.649 62.3416 184.68 61.3654 183.87 60.9586C181.141 59.592 181.146 59.5703 181.19 59.3696C181.212 59.2611 181.315 59.1906 181.424 59.1961C181.429 59.1961 181.435 59.1961 181.44 59.1961C183.664 59.5648 187.143 60.0475 190.83 60.5573C194.13 61.0129 197.544 61.4847 199.942 61.8697C200.638 61.9782 201.486 62.0975 202.356 62.2114C206.526 62.7754 207.309 62.9598 207.309 63.3883C207.303 64.2885 203.171 64.6085 203.128 64.6139C202.307 64.6736 201.459 64.7007 200.6 64.7007V64.7061ZM182.609 59.8252C184.082 60.5898 186.654 61.8806 187.562 62.1951C192.162 63.7787 198.115 64.5434 203.095 64.1855C204.34 64.0987 206.406 63.7299 206.814 63.4262C206.286 63.1822 203.998 62.873 202.296 62.6453C201.426 62.526 200.572 62.4121 199.871 62.3036C197.473 61.924 194.064 61.4521 190.764 60.9912C187.703 60.5681 184.778 60.1614 182.604 59.8252H182.609Z" fill="#343434"/>
<path d="M204.688 70.8887C203.769 70.8887 202.948 70.8181 202.932 70.8181C197.908 70.3626 192.091 68.6326 187.758 66.3006C187.04 65.9155 185.251 64.6356 184.517 64.1041C182.049 62.3144 182.054 62.2928 182.131 62.1029C182.169 61.9999 182.283 61.9457 182.392 61.9728C182.397 61.9728 182.402 61.9728 182.408 61.9728C184.539 62.6941 187.894 63.7299 191.444 64.8308C194.63 65.8179 197.925 66.832 200.235 67.5967C200.904 67.8191 201.725 68.0685 202.562 68.3234C206.586 69.5491 207.33 69.8637 207.254 70.2867C207.167 70.7802 205.846 70.8941 204.683 70.8941L204.688 70.8887ZM183.463 62.7754C184.795 63.7679 187.122 65.4545 187.97 65.9101C192.254 68.215 198.006 69.9287 202.975 70.3789C204.22 70.4928 206.319 70.4656 206.77 70.2324C206.292 69.907 204.085 69.2345 202.443 68.7356C201.605 68.4807 200.779 68.2258 200.105 68.0035C197.8 67.2388 194.505 66.2246 191.324 65.2376C188.372 64.3265 185.561 63.4588 183.468 62.7754H183.463Z" fill="#343434"/>
<path d="M202.758 75.6449C201.007 75.6449 197.647 75.0537 195.549 74.0775C191.433 72.1631 188.339 70.0643 186.464 68.6434C186.437 68.6217 183.985 66.7398 183.397 65.9535C183.305 65.8233 183.261 65.7257 183.283 65.6715C183.327 65.563 183.457 65.5142 183.566 65.5521H183.582C185.24 66.3114 187.127 67.2008 189.122 68.1391C191.863 69.4298 194.701 70.7585 197.337 71.9353C197.979 72.2228 198.762 72.5482 199.567 72.8844C203.443 74.5114 204.106 74.8693 203.987 75.2815C203.96 75.3846 203.883 75.4659 203.758 75.5201C203.574 75.6069 203.226 75.6449 202.769 75.6449H202.758ZM184.528 66.4741C186.11 67.9058 189.862 70.9592 195.734 73.6871C198.398 74.9236 202.611 75.3954 203.465 75.1676C202.97 74.788 200.92 73.9311 199.387 73.2857C198.582 72.9495 197.794 72.6187 197.153 72.3312C194.51 71.1544 191.678 69.8203 188.932 68.5295C187.377 67.7974 185.893 67.1032 184.534 66.4741H184.528Z" fill="#343434"/>
<path d="M200.257 79.6689C198.947 79.6689 195.309 78.3945 192.357 76.4475C185.768 72.1035 184.142 69.0935 184.316 68.8115C184.376 68.7139 184.512 68.676 184.615 68.7356C184.615 68.7356 184.626 68.741 184.631 68.7465C186.426 69.945 187.888 70.8127 189.438 71.7293C191.003 72.6566 192.624 73.6166 194.744 75.0158C195.331 75.4008 196.06 75.8564 196.799 76.3228C200.36 78.5518 201.002 79.0453 200.822 79.4303C200.79 79.4954 200.719 79.5876 200.556 79.6364C200.474 79.6581 200.377 79.6689 200.252 79.6689H200.257ZM185.132 69.5979C185.882 70.6771 187.856 72.9603 192.596 76.0842C195.908 78.2643 199.55 79.3002 200.339 79.2351C199.914 78.7795 198.001 77.581 196.571 76.6861C195.826 76.2197 195.097 75.7642 194.505 75.3737C192.395 73.9853 190.775 73.0254 189.215 72.098C187.877 71.3062 186.611 70.5524 185.132 69.5925V69.5979Z" fill="#343434"/>
<path d="M195.549 83.8883C194.614 83.8883 191.982 82.4999 189.16 79.4466C187.497 77.6461 185.365 73.725 185.088 72.5753V72.5699C185.05 72.4126 185.05 72.3096 185.088 72.2662C185.17 72.1848 185.311 72.1794 185.393 72.2662C185.393 72.2662 185.398 72.2716 185.404 72.277C186.958 73.9365 187.567 74.5548 188.269 75.2707C188.927 75.9377 189.666 76.6916 191.319 78.4324C191.868 79.0073 192.548 79.6798 193.211 80.3306C195.652 82.7331 196.239 83.3785 195.967 83.731C195.886 83.834 195.761 83.8882 195.587 83.8937C195.576 83.8937 195.565 83.8937 195.549 83.8937V83.8883ZM185.898 73.4376C186.583 74.8965 187.964 77.5105 189.476 79.1483C192.39 82.3047 194.967 83.5195 195.554 83.4598C195.326 83.0205 193.934 81.6484 192.896 80.6289C192.232 79.9781 191.553 79.3056 190.998 78.7199C189.345 76.9844 188.606 76.2306 187.953 75.5635C187.388 74.9886 186.882 74.4734 185.898 73.4322V73.4376Z" fill="#343434"/>
</g>
<path d="M32.7361 108.16C31.8614 108.16 31.0561 108.021 30.3201 107.744C29.5948 107.456 28.9601 107.056 28.4161 106.544C27.8721 106.021 27.4508 105.408 27.1521 104.704C26.8534 104 26.7041 103.232 26.7041 102.4C26.7041 101.568 26.8534 100.8 27.1521 100.096C27.4508 99.392 27.8721 98.784 28.4161 98.272C28.9708 97.7493 29.6161 97.3493 30.3521 97.072C31.0881 96.784 31.8934 96.64 32.7681 96.64C33.7174 96.64 34.5708 96.7947 35.3281 97.104C36.0961 97.4133 36.7414 97.8667 37.2641 98.464L35.9521 99.744C35.5148 99.3067 35.0401 98.9867 34.5281 98.784C34.0268 98.5707 33.4721 98.464 32.8641 98.464C32.2774 98.464 31.7334 98.56 31.2321 98.752C30.7308 98.944 30.2988 99.216 29.9361 99.568C29.5734 99.92 29.2908 100.336 29.0881 100.816C28.8961 101.296 28.8001 101.824 28.8001 102.4C28.8001 102.965 28.8961 103.488 29.0881 103.968C29.2908 104.448 29.5734 104.869 29.9361 105.232C30.2988 105.584 30.7254 105.856 31.2161 106.048C31.7068 106.24 32.2508 106.336 32.8481 106.336C33.4028 106.336 33.9361 106.251 34.4481 106.08C34.9708 105.899 35.4668 105.6 35.9361 105.184L37.1201 106.736C36.5334 107.205 35.8508 107.563 35.0721 107.808C34.3041 108.043 33.5254 108.16 32.7361 108.16ZM35.1521 106.464V102.272H37.1201V106.736L35.1521 106.464Z" fill="#FA6559"/>
<path d="M43.6875 108.112C42.7381 108.112 41.9061 107.925 41.1915 107.552C40.4875 107.168 39.9381 106.645 39.5435 105.984C39.1595 105.323 38.9675 104.571 38.9675 103.728C38.9675 102.875 39.1541 102.123 39.5275 101.472C39.9115 100.811 40.4341 100.293 41.0955 99.92C41.7675 99.5467 42.5301 99.36 43.3835 99.36C44.2155 99.36 44.9568 99.5413 45.6075 99.904C46.2581 100.267 46.7701 100.779 47.1435 101.44C47.5168 102.101 47.7035 102.88 47.7035 103.776C47.7035 103.861 47.6981 103.957 47.6875 104.064C47.6875 104.171 47.6821 104.272 47.6715 104.368H40.5515V103.04H46.6155L45.8315 103.456C45.8421 102.965 45.7408 102.533 45.5275 102.16C45.3141 101.787 45.0208 101.493 44.6475 101.28C44.2848 101.067 43.8635 100.96 43.3835 100.96C42.8928 100.96 42.4608 101.067 42.0875 101.28C41.7248 101.493 41.4368 101.792 41.2235 102.176C41.0208 102.549 40.9195 102.992 40.9195 103.504V103.824C40.9195 104.336 41.0368 104.789 41.2715 105.184C41.5061 105.579 41.8368 105.883 42.2635 106.096C42.6901 106.309 43.1808 106.416 43.7355 106.416C44.2155 106.416 44.6475 106.341 45.0315 106.192C45.4155 106.043 45.7568 105.808 46.0555 105.488L47.1275 106.72C46.7435 107.168 46.2581 107.515 45.6715 107.76C45.0955 107.995 44.4341 108.112 43.6875 108.112Z" fill="#FA6559"/>
<path d="M54.4726 99.36C55.1553 99.36 55.7633 99.4933 56.2966 99.76C56.8406 100.027 57.2673 100.437 57.5766 100.992C57.8859 101.536 58.0406 102.24 58.0406 103.104V108H56.0406V103.36C56.0406 102.603 55.8593 102.037 55.4966 101.664C55.1446 101.291 54.6486 101.104 54.0086 101.104C53.5393 101.104 53.1233 101.2 52.7606 101.392C52.3979 101.584 52.1153 101.872 51.9126 102.256C51.7206 102.629 51.6246 103.104 51.6246 103.68V108H49.6246V99.456H51.5286V101.76L51.1926 101.056C51.4913 100.512 51.9233 100.096 52.4886 99.808C53.0646 99.5093 53.7259 99.36 54.4726 99.36Z" fill="#FA6559"/>
<path d="M64.6094 108.112C63.66 108.112 62.828 107.925 62.1133 107.552C61.4093 107.168 60.86 106.645 60.4654 105.984C60.0814 105.323 59.8894 104.571 59.8894 103.728C59.8894 102.875 60.076 102.123 60.4494 101.472C60.8334 100.811 61.356 100.293 62.0174 99.92C62.6894 99.5467 63.452 99.36 64.3054 99.36C65.1374 99.36 65.8787 99.5413 66.5294 99.904C67.18 100.267 67.692 100.779 68.0654 101.44C68.4387 102.101 68.6254 102.88 68.6254 103.776C68.6254 103.861 68.62 103.957 68.6094 104.064C68.6094 104.171 68.604 104.272 68.5934 104.368H61.4734V103.04H67.5374L66.7534 103.456C66.764 102.965 66.6627 102.533 66.4494 102.16C66.236 101.787 65.9427 101.493 65.5694 101.28C65.2067 101.067 64.7854 100.96 64.3054 100.96C63.8147 100.96 63.3827 101.067 63.0093 101.28C62.6467 101.493 62.3587 101.792 62.1454 102.176C61.9427 102.549 61.8414 102.992 61.8414 103.504V103.824C61.8414 104.336 61.9587 104.789 62.1934 105.184C62.428 105.579 62.7587 105.883 63.1854 106.096C63.612 106.309 64.1027 106.416 64.6574 106.416C65.1374 106.416 65.5693 106.341 65.9534 106.192C66.3373 106.043 66.6787 105.808 66.9774 105.488L68.0494 106.72C67.6654 107.168 67.18 107.515 66.5934 107.76C66.0174 107.995 65.356 108.112 64.6094 108.112Z" fill="#FA6559"/>
<path d="M70.5465 108V99.456H72.4505V101.808L72.2265 101.12C72.4825 100.544 72.8825 100.107 73.4265 99.808C73.9811 99.5093 74.6691 99.36 75.4905 99.36V101.264C75.4051 101.243 75.3251 101.232 75.2505 101.232C75.1758 101.221 75.1011 101.216 75.0265 101.216C74.2691 101.216 73.6665 101.44 73.2185 101.888C72.7705 102.325 72.5465 102.981 72.5465 103.856V108H70.5465Z" fill="#FA6559"/>
<path d="M81.8417 108V106.272L81.7297 105.904V102.88C81.7297 102.293 81.5537 101.84 81.2017 101.52C80.8497 101.189 80.3164 101.024 79.6017 101.024C79.1217 101.024 78.6471 101.099 78.1777 101.248C77.7191 101.397 77.3297 101.605 77.0097 101.872L76.2257 100.416C76.6844 100.064 77.2284 99.8027 77.8577 99.632C78.4977 99.4507 79.1591 99.36 79.8417 99.36C81.0791 99.36 82.0337 99.6587 82.7057 100.256C83.3884 100.843 83.7297 101.755 83.7297 102.992V108H81.8417ZM79.1537 108.112C78.5137 108.112 77.9537 108.005 77.4737 107.792C76.9937 107.568 76.6204 107.264 76.3537 106.88C76.0977 106.485 75.9697 106.043 75.9697 105.552C75.9697 105.072 76.0817 104.64 76.3057 104.256C76.5404 103.872 76.9191 103.568 77.4417 103.344C77.9644 103.12 78.6577 103.008 79.5217 103.008H82.0017V104.336H79.6657C78.9831 104.336 78.5244 104.448 78.2897 104.672C78.0551 104.885 77.9377 105.152 77.9377 105.472C77.9377 105.835 78.0817 106.123 78.3697 106.336C78.6577 106.549 79.0577 106.656 79.5697 106.656C80.0604 106.656 80.4977 106.544 80.8817 106.32C81.2764 106.096 81.5591 105.765 81.7297 105.328L82.0657 106.528C81.8737 107.029 81.5271 107.419 81.0257 107.696C80.5351 107.973 79.9111 108.112 79.1537 108.112Z" fill="#FA6559"/>
<path d="M86.2965 108V96.128H88.2965V108H86.2965Z" fill="#FA6559"/>
<path d="M98.1754 108L94.4633 96.8H96.6234L99.9353 106.928H98.8633L102.303 96.8H104.223L107.567 106.928H106.527L109.919 96.8H111.903L108.191 108H105.983L102.927 98.864H103.503L100.399 108H98.1754Z" fill="#FA6559"/>
<path d="M116.781 108.112C115.832 108.112 115 107.925 114.285 107.552C113.581 107.168 113.032 106.645 112.637 105.984C112.253 105.323 112.061 104.571 112.061 103.728C112.061 102.875 112.248 102.123 112.621 101.472C113.005 100.811 113.528 100.293 114.189 99.92C114.861 99.5467 115.624 99.36 116.477 99.36C117.309 99.36 118.051 99.5413 118.701 99.904C119.352 100.267 119.864 100.779 120.237 101.44C120.611 102.101 120.797 102.88 120.797 103.776C120.797 103.861 120.792 103.957 120.781 104.064C120.781 104.171 120.776 104.272 120.765 104.368H113.645V103.04H119.709L118.925 103.456C118.936 102.965 118.835 102.533 118.621 102.16C118.408 101.787 118.115 101.493 117.741 101.28C117.379 101.067 116.957 100.96 116.477 100.96C115.987 100.96 115.555 101.067 115.181 101.28C114.819 101.493 114.531 101.792 114.317 102.176C114.115 102.549 114.013 102.992 114.013 103.504V103.824C114.013 104.336 114.131 104.789 114.365 105.184C114.6 105.579 114.931 105.883 115.357 106.096C115.784 106.309 116.275 106.416 116.829 106.416C117.309 106.416 117.741 106.341 118.125 106.192C118.509 106.043 118.851 105.808 119.149 105.488L120.221 106.72C119.837 107.168 119.352 107.515 118.765 107.76C118.189 107.995 117.528 108.112 116.781 108.112Z" fill="#FA6559"/>
<path d="M122.718 108V96.128H124.718V108H122.718Z" fill="#FA6559"/>
<path d="M127.343 108V96.128H129.343V108H127.343Z" fill="#FA6559"/>
<path d="M136.704 108.112C135.979 108.112 135.334 107.952 134.768 107.632C134.203 107.312 133.755 106.832 133.424 106.192C133.104 105.541 132.944 104.72 132.944 103.728C132.944 102.725 133.11 101.904 133.44 101.264C133.782 100.624 134.235 100.149 134.8 99.84C135.376 99.52 136.011 99.36 136.704 99.36C137.547 99.36 138.288 99.5413 138.928 99.904C139.579 100.267 140.091 100.773 140.464 101.424C140.848 102.075 141.04 102.843 141.04 103.728C141.04 104.613 140.848 105.381 140.464 106.032C140.091 106.683 139.579 107.195 138.928 107.568C138.288 107.931 137.547 108.112 136.704 108.112ZM131.968 108V96.128H133.968V101.44L133.808 103.712L133.872 105.984V108H131.968ZM136.48 106.4C136.96 106.4 137.387 106.293 137.76 106.08C138.144 105.867 138.448 105.557 138.672 105.152C138.896 104.747 139.008 104.272 139.008 103.728C139.008 103.173 138.896 102.699 138.672 102.304C138.448 101.899 138.144 101.589 137.76 101.376C137.387 101.163 136.96 101.056 136.48 101.056C136 101.056 135.568 101.163 135.184 101.376C134.8 101.589 134.496 101.899 134.272 102.304C134.048 102.699 133.936 103.173 133.936 103.728C133.936 104.272 134.048 104.747 134.272 105.152C134.496 105.557 134.8 105.867 135.184 106.08C135.568 106.293 136 106.4 136.48 106.4Z" fill="#FA6559"/>
<path d="M146.953 108.112C146.004 108.112 145.172 107.925 144.457 107.552C143.753 107.168 143.204 106.645 142.809 105.984C142.425 105.323 142.233 104.571 142.233 103.728C142.233 102.875 142.42 102.123 142.793 101.472C143.177 100.811 143.7 100.293 144.361 99.92C145.033 99.5467 145.796 99.36 146.649 99.36C147.481 99.36 148.222 99.5413 148.873 99.904C149.524 100.267 150.036 100.779 150.409 101.44C150.782 102.101 150.969 102.88 150.969 103.776C150.969 103.861 150.964 103.957 150.953 104.064C150.953 104.171 150.948 104.272 150.937 104.368H143.817V103.04H149.881L149.097 103.456C149.108 102.965 149.006 102.533 148.793 102.16C148.58 101.787 148.286 101.493 147.913 101.28C147.55 101.067 147.129 100.96 146.649 100.96C146.158 100.96 145.726 101.067 145.353 101.28C144.99 101.493 144.702 101.792 144.489 102.176C144.286 102.549 144.185 102.992 144.185 103.504V103.824C144.185 104.336 144.302 104.789 144.537 105.184C144.772 105.579 145.102 105.883 145.529 106.096C145.956 106.309 146.446 106.416 147.001 106.416C147.481 106.416 147.913 106.341 148.297 106.192C148.681 106.043 149.022 105.808 149.321 105.488L150.393 106.72C150.009 107.168 149.524 107.515 148.937 107.76C148.361 107.995 147.7 108.112 146.953 108.112Z" fill="#FA6559"/>
<path d="M152.89 108V99.456H154.89V108H152.89ZM153.898 98.048C153.525 98.048 153.216 97.9307 152.97 97.696C152.736 97.4613 152.618 97.1787 152.618 96.848C152.618 96.5067 152.736 96.224 152.97 96C153.216 95.7653 153.525 95.648 153.898 95.648C154.272 95.648 154.576 95.76 154.81 95.984C155.056 96.1973 155.178 96.4693 155.178 96.8C155.178 97.152 155.061 97.4507 154.826 97.696C154.592 97.9307 154.282 98.048 153.898 98.048Z" fill="#FA6559"/>
<path d="M162.363 99.36C163.046 99.36 163.654 99.4933 164.187 99.76C164.731 100.027 165.158 100.437 165.467 100.992C165.777 101.536 165.931 102.24 165.931 103.104V108H163.931V103.36C163.931 102.603 163.75 102.037 163.387 101.664C163.035 101.291 162.539 101.104 161.899 101.104C161.43 101.104 161.014 101.2 160.651 101.392C160.289 101.584 160.006 101.872 159.803 102.256C159.611 102.629 159.515 103.104 159.515 103.68V108H157.515V99.456H159.419V101.76L159.083 101.056C159.382 100.512 159.814 100.096 160.379 99.808C160.955 99.5093 161.617 99.36 162.363 99.36Z" fill="#FA6559"/>
<path d="M172.356 111.216C171.567 111.216 170.793 111.109 170.036 110.896C169.289 110.693 168.676 110.395 168.196 110L169.092 108.496C169.465 108.805 169.935 109.051 170.5 109.232C171.076 109.424 171.657 109.52 172.244 109.52C173.183 109.52 173.871 109.301 174.308 108.864C174.745 108.437 174.964 107.792 174.964 106.928V105.408L175.124 103.472L175.06 101.536V99.456H176.964V106.704C176.964 108.251 176.569 109.387 175.78 110.112C174.991 110.848 173.849 111.216 172.356 111.216ZM172.1 107.616C171.289 107.616 170.553 107.445 169.892 107.104C169.241 106.752 168.724 106.267 168.34 105.648C167.967 105.029 167.78 104.304 167.78 103.472C167.78 102.651 167.967 101.931 168.34 101.312C168.724 100.693 169.241 100.213 169.892 99.872C170.553 99.5307 171.289 99.36 172.1 99.36C172.825 99.36 173.476 99.504 174.052 99.792C174.628 100.08 175.087 100.528 175.428 101.136C175.78 101.744 175.956 102.523 175.956 103.472C175.956 104.421 175.78 105.205 175.428 105.824C175.087 106.432 174.628 106.885 174.052 107.184C173.476 107.472 172.825 107.616 172.1 107.616ZM172.404 105.92C172.905 105.92 173.353 105.819 173.748 105.616C174.143 105.403 174.447 105.115 174.66 104.752C174.884 104.379 174.996 103.952 174.996 103.472C174.996 102.992 174.884 102.571 174.66 102.208C174.447 101.835 174.143 101.552 173.748 101.36C173.353 101.157 172.905 101.056 172.404 101.056C171.903 101.056 171.449 101.157 171.044 101.36C170.649 101.552 170.34 101.835 170.116 102.208C169.903 102.571 169.796 102.992 169.796 103.472C169.796 103.952 169.903 104.379 170.116 104.752C170.34 105.115 170.649 105.403 171.044 105.616C171.449 105.819 171.903 105.92 172.404 105.92Z" fill="#FA6559"/>
</g>
<defs>
<filter id="filter0_d_5255_6238" x="0" y="0" width="266" height="143" filterUnits="userSpaceOnUse" color-interpolation-filters="sRGB">
<feFlood flood-opacity="0" result="BackgroundImageFix"/>
<feColorMatrix in="SourceAlpha" type="matrix" values="0 0 0 0 0 0 0 0 0 0 0 0 0 0 0 0 0 0 127 0" result="hardAlpha"/>
<feOffset dy="10"/>
<feGaussianBlur stdDeviation="7.5"/>
<feComposite in2="hardAlpha" operator="out"/>
<feColorMatrix type="matrix" values="0 0 0 0 0.980392 0 0 0 0 0.396078 0 0 0 0 0.34902 0 0 0 0.15 0"/>
<feBlend mode="normal" in2="BackgroundImageFix" result="effect1_dropShadow_5255_6238"/>
<feBlend mode="normal" in="SourceGraphic" in2="effect1_dropShadow_5255_6238" result="shape"/>
</filter>
</defs>
</svg>
